<svg xmlns="http://www.w3.org/2000/svg" xmlns:xlink="http://www.w3.org/1999/xlink" version="1.1" x="0px" y="0px" viewBox="0 0 60 75" enable-background="new 0 0 60 60" xml:space="preserve"><g><path fill="none" stroke="#000000" stroke-width="2" stroke-linecap="round" stroke-linejoin="round" stroke-miterlimit="10" d="   M47.6017036,48.7466927c-8.0358696-4.9731026-16.2274685-8.658802-25.5092049-8.6691856h-4.931572   c-3.0835314,0-5.876358-1.2458687-7.8905163-3.2704086C7.2458706,34.7929382,6,32.0001144,6,28.9165821   c0-6.1670609,4.993865-11.1609249,11.1609268-11.1609249h4.9419537c9.1260033,0,17.9716854-2.8862677,25.3015575-8.2019835"/><ellipse fill="none" stroke="#000000" stroke-width="2" stroke-linecap="round" stroke-linejoin="round" stroke-miterlimit="10" cx="49.5134506" cy="28.9187164" rx="4.4865484" ry="21.932518"/><line fill="none" stroke="#000000" stroke-width="2" stroke-linecap="round" stroke-linejoin="round" stroke-miterlimit="10" x1="23.226944" y1="17.7422485" x2="23.226944" y2="40.0951843"/><polyline fill="none" stroke="#000000" stroke-width="2" stroke-linecap="round" stroke-linejoin="round" stroke-miterlimit="10" points="   18.3341217,40.077507 20.2963676,53.0138016 14.7314777,53.0138016 12.6238794,39.0704308  "/><path fill="none" stroke="#000000" stroke-width="2" stroke-linejoin="round" stroke-miterlimit="10" d="M45.0785713,23.3250313   c3.0893059,0,5.5936852,2.5043793,5.5936852,5.5936852s-2.5043793,5.5936852-5.5936852,5.5936852"/></g><text x="0" y="75" fill="#000000" font-size="5px" font-weight="bold" font-family="'Helvetica Neue', Helvetica, Arial-Unicode, Arial, Sans-serif">Created by DinosoftLabs</text><text x="0" y="80" fill="#000000" font-size="5px" font-weight="bold" font-family="'Helvetica Neue', Helvetica, Arial-Unicode, Arial, Sans-serif">from the Noun Project</text></svg>